<svg xmlns="http://www.w3.org/2000/svg" xmlns:xlink="http://www.w3.org/1999/xlink" width="500" zoomAndPan="magnify" viewBox="0 0 375 374.999991" height="500" preserveAspectRatio="xMidYMid meet" version="1.0"><defs><clipPath id="c259f13fca"><path d="M 19 0 L 359.640625 0 L 359.640625 375 L 19 375 Z M 19 0 " clip-rule="nonzero"/></clipPath></defs><g clip-path="url(#c259f13fca)"><path fill="#ffffff" d="M 31.015625 375 C 25.472656 375 20.984375 370.507812 20.984375 364.96875 C 20.984375 336.613281 20.984375 308.253906 20.984375 279.898438 C 20.984375 231.777344 15.53125 179.945312 25.652344 132.761719 C 42.15625 55.855469 111.605469 0 190.226562 0 C 219.636719 0 248.585938 7.652344 273.953125 22.132812 C 283.375 27.484375 292.347656 33.816406 300.609375 40.933594 C 340.765625 75.539062 359.503906 125.203125 359.46875 177.328125 C 359.453125 208.996094 359.46875 240.660156 359.46875 272.328125 C 359.46875 303.207031 359.46875 334.089844 359.46875 364.96875 C 359.46875 370.507812 354.980469 375 349.4375 375 Z M 31.015625 375 " fill-opacity="1" fill-rule="nonzero"/></g><path fill="#ffbda6" d="M 41.828125 328.375 L 335.808594 340.382812 L 322.976562 81.050781 C 320.503906 77.304688 317.878906 73.675781 315.117188 70.164062 C 315.101562 70.148438 315.085938 70.117188 315.070312 70.097656 C 311.207031 65.199219 307.058594 60.550781 302.664062 56.15625 C 302.597656 56.089844 302.546875 56.039062 302.480469 55.988281 C 301.894531 55.386719 301.292969 54.785156 300.671875 54.214844 C 300.238281 53.78125 299.785156 53.347656 299.335938 52.929688 C 297.5625 51.257812 295.757812 49.617188 293.917969 48.03125 C 286.175781 41.359375 277.78125 35.425781 268.835938 30.34375 C 245.613281 17.082031 218.726562 9.527344 190.085938 9.527344 C 138.652344 9.527344 92.9375 33.886719 63.84375 71.722656 C 52.980469 85.871094 44.460938 101.828125 38.882812 118.785156 C 38.363281 120.355469 37.878906 121.925781 37.410156 123.515625 Z M 41.828125 328.375 " fill-opacity="1" fill-rule="nonzero"/><path fill="#ffe4c3" d="M 347.003906 184.890625 C 328.730469 203.765625 304.769531 216.335938 279.90625 224.863281 C 255.042969 233.375 229.09375 238.105469 203.328125 243.304688 C 174.082031 249.207031 144.488281 255.808594 114.707031 253.804688 C 84.929688 251.816406 54.296875 239.808594 37.09375 215.433594 L 30.871094 178.519531 L 30.871094 168.335938 C 30.914062 153.800781 32.90625 139.515625 36.808594 125.570312 C 36.992188 124.886719 37.191406 124.199219 37.410156 123.515625 C 40.789062 122.328125 44.398438 121.777344 47.976562 121.976562 C 58.175781 122.511719 67.839844 129.03125 72.15625 138.292969 C 75.046875 123.984375 88.457031 112.515625 103.054688 111.863281 C 117.632812 111.191406 132.015625 121.410156 136.195312 135.402344 C 142.347656 124.601562 157.445312 121.761719 169.433594 125.054688 C 181.40625 128.347656 190.953125 137.640625 197.609375 148.140625 C 202.605469 142.257812 210.5 137.84375 218.175781 136.992188 C 225.867188 136.15625 233.839844 138.363281 239.996094 143.027344 C 240.179688 138.160156 241.5 133.011719 243.824219 128.730469 C 247.25 122.410156 252.535156 116.878906 259.238281 114.285156 C 265.945312 111.710938 274.136719 112.464844 279.570312 117.179688 C 281.914062 106.679688 288.800781 96.730469 297.847656 90.929688 C 305.453125 86.046875 314.097656 82.234375 322.976562 81.050781 C 324.347656 83.136719 325.6875 85.246094 326.957031 87.386719 C 334.167969 99.484375 339.761719 112.574219 343.507812 126.15625 C 343.609375 126.492188 343.695312 126.824219 343.792969 127.160156 C 343.792969 127.160156 347.773438 184.085938 347.003906 184.890625 Z M 347.003906 184.890625 " fill-opacity="1" fill-rule="nonzero"/><path fill="#e78d45" d="M 188.371094 102.910156 C 188.371094 104.589844 188.289062 106.261719 188.125 107.929688 C 187.957031 109.601562 187.710938 111.257812 187.386719 112.902344 C 187.058594 114.550781 186.652344 116.175781 186.164062 117.78125 C 185.675781 119.386719 185.113281 120.960938 184.46875 122.511719 C 183.828125 124.0625 183.113281 125.578125 182.320312 127.058594 C 181.53125 128.535156 180.667969 129.972656 179.734375 131.367188 C 178.804688 132.761719 177.804688 134.109375 176.742188 135.40625 C 175.675781 136.703125 174.550781 137.945312 173.363281 139.128906 C 172.179688 140.316406 170.9375 141.441406 169.640625 142.507812 C 168.34375 143.570312 166.996094 144.570312 165.601562 145.5 C 164.207031 146.433594 162.769531 147.292969 161.289062 148.085938 C 159.808594 148.875 158.296875 149.59375 156.746094 150.234375 C 155.195312 150.875 153.617188 151.441406 152.011719 151.929688 C 150.40625 152.414062 148.78125 152.820312 147.136719 153.148438 C 145.488281 153.476562 143.832031 153.722656 142.164062 153.886719 C 140.492188 154.050781 138.820312 154.132812 137.140625 154.132812 C 135.464844 154.132812 133.789062 154.050781 132.121094 153.886719 C 130.449219 153.722656 128.792969 153.476562 127.148438 153.148438 C 125.5 152.820312 123.875 152.414062 122.269531 151.929688 C 120.664062 151.441406 119.085938 150.875 117.535156 150.234375 C 115.988281 149.59375 114.472656 148.875 112.992188 148.085938 C 111.511719 147.292969 110.074219 146.433594 108.679688 145.5 C 107.285156 144.570312 105.9375 143.570312 104.640625 142.507812 C 103.34375 141.441406 102.101562 140.316406 100.917969 139.128906 C 99.730469 137.945312 98.605469 136.703125 97.539062 135.40625 C 96.476562 134.109375 95.476562 132.761719 94.546875 131.367188 C 93.613281 129.972656 92.753906 128.535156 91.960938 127.058594 C 91.171875 125.578125 90.453125 124.0625 89.8125 122.511719 C 89.171875 120.960938 88.605469 119.386719 88.117188 117.78125 C 87.632812 116.175781 87.222656 114.550781 86.898438 112.902344 C 86.570312 111.257812 86.324219 109.601562 86.160156 107.929688 C 85.996094 106.261719 85.914062 104.589844 85.914062 102.910156 C 85.914062 101.234375 85.996094 99.558594 86.160156 97.890625 C 86.324219 96.21875 86.570312 94.5625 86.898438 92.917969 C 87.222656 91.273438 87.632812 89.644531 88.117188 88.042969 C 88.605469 86.4375 89.171875 84.859375 89.8125 83.308594 C 90.453125 81.757812 91.171875 80.242188 91.960938 78.765625 C 92.753906 77.285156 93.613281 75.847656 94.546875 74.453125 C 95.476562 73.058594 96.476562 71.710938 97.539062 70.414062 C 98.605469 69.117188 99.730469 67.875 100.917969 66.691406 C 102.101562 65.503906 103.34375 64.378906 104.640625 63.3125 C 105.9375 62.25 107.285156 61.25 108.679688 60.320312 C 110.074219 59.386719 111.511719 58.527344 112.992188 57.734375 C 114.472656 56.945312 115.988281 56.226562 117.535156 55.585938 C 119.085938 54.945312 120.664062 54.378906 122.269531 53.894531 C 123.875 53.40625 125.5 53 127.148438 52.671875 C 128.792969 52.34375 130.449219 52.097656 132.121094 51.933594 C 133.789062 51.769531 135.464844 51.6875 137.140625 51.6875 C 138.820312 51.6875 140.492188 51.769531 142.164062 51.933594 C 143.832031 52.097656 145.488281 52.34375 147.136719 52.671875 C 148.78125 53 150.40625 53.40625 152.011719 53.894531 C 153.617188 54.378906 155.195312 54.945312 156.746094 55.585938 C 158.296875 56.226562 159.808594 56.945312 161.289062 57.734375 C 162.769531 58.527344 164.207031 59.386719 165.601562 60.320312 C 166.996094 61.25 168.34375 62.25 169.640625 63.3125 C 170.9375 64.378906 172.179688 65.503906 173.363281 66.691406 C 174.550781 67.875 175.675781 69.117188 176.742188 70.414062 C 177.804688 71.710938 178.804688 73.058594 179.734375 74.453125 C 180.667969 75.847656 181.53125 77.285156 182.320312 78.765625 C 183.113281 80.242188 183.828125 81.757812 184.46875 83.308594 C 185.113281 84.859375 185.675781 86.4375 186.164062 88.042969 C 186.652344 89.644531 187.058594 91.273438 187.386719 92.917969 C 187.710938 94.5625 187.957031 96.21875 188.121094 97.890625 C 188.289062 99.558594 188.371094 101.234375 188.371094 102.910156 Z M 188.371094 102.910156 " fill-opacity="1" fill-rule="nonzero"/><path fill="#364772" d="M 349.296875 168.722656 L 349.296875 171.582031 L 338.617188 231.402344 L 40.832031 231.402344 L 35.320312 181.894531 C 45.847656 173.496094 60.980469 161.347656 61.722656 160.246094 C 62.722656 158.742188 73.558594 158.121094 76.015625 158.003906 C 76.335938 157.972656 76.519531 157.972656 76.519531 157.972656 L 87.171875 145.984375 L 102.453125 128.796875 C 103.355469 127.792969 104.59375 127.175781 105.914062 127.058594 L 121.914062 125.605469 L 122.632812 125.535156 L 160.003906 97.117188 C 160.871094 96.445312 161.875 96.09375 162.914062 96.046875 C 164.050781 95.980469 165.1875 96.296875 166.171875 96.964844 L 186.941406 111.308594 L 212.972656 131.238281 L 213.691406 131.789062 L 219.027344 131.988281 L 219.042969 131.988281 L 226.367188 132.273438 C 227.738281 132.339844 229.023438 132.910156 229.976562 133.894531 L 241.011719 145.449219 L 255.175781 149.8125 C 255.609375 149.945312 256.011719 150.128906 256.394531 150.363281 L 266.527344 156.632812 L 267.765625 157.402344 L 308.796875 126.640625 C 309.515625 126.105469 310.320312 125.769531 311.15625 125.652344 C 311.992188 125.519531 312.84375 125.585938 313.664062 125.871094 L 330.953125 131.789062 L 343.792969 127.15625 C 344.144531 128.429688 344.480469 129.714844 344.78125 131.003906 C 347.816406 143.289062 349.246094 156.035156 349.296875 168.722656 Z M 349.296875 168.722656 " fill-opacity="1" fill-rule="nonzero"/><path fill="#110d20" d="M 165.035156 144.027344 L 121.914062 125.605469 L 122.632812 125.539062 L 160.003906 97.117188 C 160.871094 96.449219 161.875 96.097656 162.914062 96.046875 L 162.476562 115.855469 L 151.375 113.867188 Z M 165.035156 144.027344 " fill-opacity="0.3294" fill-rule="nonzero"/><path fill="#110d20" d="M 119.859375 192.765625 L 76.015625 158.003906 C 76.335938 157.972656 76.519531 157.972656 76.519531 157.972656 L 87.171875 145.984375 L 116.429688 172.28125 L 96.582031 166.933594 Z M 119.859375 192.765625 " fill-opacity="0.3569" fill-rule="nonzero"/><path fill="#110d20" d="M 252.617188 176.113281 L 212.972656 131.238281 L 213.691406 131.789062 L 219.027344 131.992188 L 219.042969 131.992188 Z M 252.617188 176.113281 " fill-opacity="0.2667" fill-rule="nonzero"/><path fill="#110d20" d="M 326.90625 202.160156 L 266.496094 156.703125 L 266.53125 156.636719 L 267.765625 157.402344 L 308.796875 126.640625 C 309.519531 126.105469 310.320312 125.773438 311.15625 125.65625 L 324.765625 163.105469 L 298.933594 149.644531 Z M 326.90625 202.160156 " fill-opacity="0.2471" fill-rule="nonzero"/><path fill="#110d20" d="M 198.046875 223.710938 L 163.039062 181.308594 L 206.015625 204.644531 L 186.664062 146.308594 L 283.710938 223.425781 Z M 198.046875 223.710938 " fill-opacity="0.3176" fill-rule="nonzero"/><path fill="#110d20" d="M 192.023438 228.875 L 30.871094 228.875 L 30.871094 178.519531 L 37.125 162.25 L 52.894531 209.917969 L 66.21875 168.570312 L 83.742188 213.429688 L 97.769531 180.125 L 110.761719 227.453125 L 128.636719 198.363281 L 140.910156 227.824219 L 154.234375 195.90625 L 164.417969 227.824219 L 180.183594 189.605469 L 191.421875 223.960938 L 191.6875 224.78125 Z M 192.023438 228.875 " fill-opacity="1" fill-rule="nonzero"/><path fill="#110d20" d="M 349.296875 171.582031 L 349.296875 228.875 L 190.804688 228.875 L 191.152344 224.78125 L 191.421875 223.960938 L 202.640625 189.605469 L 218.40625 227.824219 L 228.605469 195.90625 L 241.917969 227.824219 L 254.191406 198.363281 L 272.0625 227.453125 L 285.054688 180.125 L 299.085938 213.429688 L 316.625 168.570312 L 329.933594 209.917969 L 345.71875 162.25 Z M 349.296875 171.582031 " fill-opacity="1" fill-rule="nonzero"/><path fill="#446458" d="M 349.296875 226.328125 L 349.296875 228.875 L 344.835938 232.671875 L 36.472656 232.671875 L 30.871094 228.875 L 30.871094 206.664062 C 75.097656 202.382812 120.792969 206.046875 162.578125 217.433594 C 170.488281 219.578125 178.414062 222.035156 186.839844 222.445312 C 189.128906 222.566406 191.421875 222.53125 193.710938 222.398438 L 193.730469 222.398438 C 198.261719 222.128906 202.742188 221.488281 207.238281 220.921875 C 227.636719 218.332031 248.386719 217.21875 269.089844 217.566406 C 296.191406 218.015625 323.226562 220.957031 349.296875 226.328125 Z M 349.296875 226.328125 " fill-opacity="1" fill-rule="nonzero"/><path fill="#636736" d="M 349.296875 229.128906 L 349.296875 364.464844 L 284.769531 364.464844 L 60.09375 345.96875 L 31.054688 269.964844 L 30.871094 229.128906 Z M 349.296875 229.128906 " fill-opacity="1" fill-rule="nonzero"/><path fill="#110d20" d="M 349.296875 244.507812 L 349.296875 364.464844 L 284.769531 364.464844 L 135.71875 351.355469 L 58.296875 320.648438 L 70.933594 270.640625 C 87.371094 265.90625 103.890625 261.160156 120.878906 259.171875 C 141.226562 256.761719 161.808594 258.351562 182.308594 258.988281 C 214.664062 259.988281 247.101562 258.566406 279.203125 254.421875 C 302.613281 251.394531 325.835938 246.933594 349.296875 244.507812 Z M 349.296875 244.507812 " fill-opacity="0.2" fill-rule="nonzero"/><path fill="#e78d45" d="M 135.71875 284.558594 L 63.652344 284.558594 C 69.21875 278.613281 78.863281 276.851562 86.140625 280.5625 C 88.78125 274.957031 94.292969 271.175781 100.050781 268.875 C 106.636719 266.261719 114.058594 265.285156 120.84375 267.277344 C 127.65625 269.28125 133.632812 274.589844 135.40625 281.445312 C 135.625 282.3125 135.703125 283.433594 135.71875 284.558594 Z M 135.71875 284.558594 " fill-opacity="1" fill-rule="nonzero"/><path fill="#636736" d="M 340.632812 315.933594 L 236.691406 315.933594 C 244.722656 307.359375 258.632812 304.820312 269.125 310.171875 C 272.933594 302.082031 280.886719 296.632812 289.1875 293.3125 C 298.683594 289.542969 309.390625 288.136719 319.179688 291.007812 C 329.007812 293.898438 337.621094 301.554688 340.183594 311.441406 C 340.496094 312.691406 340.613281 314.3125 340.632812 315.933594 Z M 340.632812 315.933594 " fill-opacity="1" fill-rule="nonzero"/><path fill="#110d20" d="M 284.210938 364.269531 L 31.054688 364.269531 L 31.054688 269.964844 C 42.101562 260.78125 59.660156 259.445312 72.953125 265.980469 C 89.421875 274.074219 99.816406 291.203125 104.9375 308.832031 C 112.152344 300.761719 121.9375 295.160156 132.433594 292.539062 C 143.558594 289.765625 156.019531 290.496094 165.578125 296.828125 C 180.082031 306.4375 184.167969 325.527344 187.070312 342.679688 C 200.589844 327.496094 220.972656 317.710938 241.304688 317.078125 C 246.777344 316.902344 252.355469 317.332031 257.472656 319.222656 C 268.269531 323.207031 275.964844 333.222656 279.898438 344.042969 C 282.296875 350.550781 283.507812 357.359375 284.210938 364.269531 Z M 284.210938 364.269531 " fill-opacity="1" fill-rule="nonzero"/><path fill="#ffe4c3" d="M 259.355469 248.464844 C 259.355469 248.464844 259.351562 248.464844 259.351562 248.464844 C 259.257812 248.460938 259.175781 248.402344 259.148438 248.316406 L 249.804688 221.882812 C 249.761719 221.769531 249.820312 221.640625 249.9375 221.597656 C 250.054688 221.558594 250.183594 221.617188 250.222656 221.734375 L 259.371094 247.613281 L 271 218.992188 C 271.046875 218.875 271.175781 218.820312 271.289062 218.867188 C 271.402344 218.914062 271.460938 219.042969 271.410156 219.160156 L 259.5625 248.324219 C 259.527344 248.410156 259.445312 248.464844 259.355469 248.464844 Z M 259.355469 248.464844 " fill-opacity="1" fill-rule="nonzero"/><path fill="#ffe4c3" d="M 259.28125 247.933594 C 259.277344 247.933594 259.273438 247.933594 259.273438 247.933594 C 259.148438 247.929688 259.054688 247.824219 259.054688 247.703125 L 259.96875 220.207031 C 259.972656 220.085938 260.070312 219.992188 260.191406 219.992188 C 260.191406 219.992188 260.195312 219.992188 260.195312 219.992188 C 260.320312 219.996094 260.417969 220.097656 260.414062 220.222656 L 259.503906 247.71875 C 259.5 247.839844 259.398438 247.933594 259.28125 247.933594 Z M 259.28125 247.933594 " fill-opacity="1" fill-rule="nonzero"/><path fill="#e78d45" d="M 247.503906 243.457031 L 272.574219 243.457031 L 263.664062 257.710938 C 262.832031 259.035156 261.34375 259.800781 259.785156 259.699219 L 257.722656 259.566406 C 256.195312 259.46875 254.839844 258.558594 254.171875 257.183594 Z M 247.503906 243.457031 " fill-opacity="1" fill-rule="nonzero"/><path fill="#a54e30" d="M 309.082031 198.964844 C 308.574219 199.492188 308.070312 200.023438 307.5625 200.535156 C 298.429688 209.871094 288.074219 217.359375 279.625 222.707031 C 279.167969 222.988281 278.707031 223.269531 278.265625 223.539062 C 278.265625 223.554688 278.265625 223.554688 278.265625 223.554688 C 272.414062 227.179688 267.597656 229.707031 264.964844 231.035156 C 264.578125 231.230469 264.230469 231.394531 263.9375 231.542969 C 263.171875 231.917969 262.75 232.113281 262.75 232.113281 L 261.949219 232.019531 L 261.117188 231.910156 L 261.117188 231.929688 L 261.027344 231.925781 L 255.875 231.238281 L 255.679688 231.210938 C 255.679688 231.210938 255.101562 230.953125 254.035156 230.421875 C 249.507812 228.246094 236.347656 221.472656 223.039062 210.960938 C 222.140625 210.257812 221.246094 209.535156 220.351562 208.78125 C 202.125 193.679688 184.648438 171.609375 189.878906 144.691406 C 193.1875 127.621094 202.371094 116.375 213.238281 109 C 213.71875 108.664062 214.179688 108.363281 214.660156 108.046875 C 220.09375 104.5625 225.894531 101.988281 231.574219 100.089844 C 231.738281 100.027344 231.917969 99.980469 232.082031 99.933594 C 232.464844 99.792969 232.828125 99.683594 233.207031 99.558594 L 233.226562 99.558594 C 239.5 97.578125 245.558594 96.410156 250.699219 95.738281 C 251.003906 95.699219 251.292969 95.660156 251.578125 95.636719 C 259.902344 94.589844 265.628906 94.820312 265.628906 94.820312 C 267.09375 94.816406 268.679688 94.855469 270.359375 94.929688 C 270.679688 94.945312 271 94.960938 271.339844 94.996094 C 275.582031 95.226562 280.324219 95.785156 285.242188 96.90625 C 285.667969 96.996094 286.089844 97.085938 286.515625 97.195312 C 293.390625 98.871094 300.535156 101.632812 307.011719 106.113281 C 307.601562 106.515625 308.171875 106.917969 308.722656 107.351562 C 318.652344 114.816406 326.796875 126.574219 329.609375 144.949219 C 332.894531 166.328125 322.554688 184.683594 309.082031 198.964844 Z M 309.082031 198.964844 " fill-opacity="1" fill-rule="nonzero"/><path fill="#ffbda6" d="M 236.414062 199.914062 C 240.535156 210.109375 246.65625 220.003906 255.875 231.242188 L 255.679688 231.214844 C 255.679688 231.214844 255.101562 230.953125 254.039062 230.421875 C 245.402344 219.679688 239.574219 210.097656 235.597656 200.25 C 231.1875 189.324219 229.074219 177.792969 227.429688 166.960938 C 225.628906 154.941406 223.945312 140.726562 225.238281 126.582031 C 226.15625 116.816406 228.464844 107.808594 232.082031 99.9375 C 232.464844 99.792969 232.828125 99.683594 233.207031 99.558594 C 229.460938 107.515625 227.054688 116.695312 226.128906 126.660156 C 224.835938 140.714844 226.503906 154.855469 228.3125 166.820312 C 229.941406 177.597656 232.054688 189.078125 236.414062 199.914062 Z M 236.414062 199.914062 " fill-opacity="1" fill-rule="nonzero"/><path fill="#ffbda6" d="M 223.039062 210.960938 C 222.140625 210.261719 221.246094 209.539062 220.351562 208.785156 C 216.457031 203.332031 213.0625 197.53125 210.472656 191.316406 C 205.984375 180.53125 203.707031 168.007812 203.738281 154.109375 C 203.765625 137.671875 207.070312 122.261719 213.238281 109 C 213.71875 108.664062 214.179688 108.367188 214.660156 108.046875 C 208.160156 121.488281 204.660156 137.246094 204.632812 154.113281 C 204.605469 167.90625 206.855469 180.304688 211.292969 190.980469 C 214.285156 198.15625 218.375 204.777344 223.039062 210.960938 Z M 223.039062 210.960938 " fill-opacity="1" fill-rule="nonzero"/><path fill="#ffbda6" d="M 251.582031 95.636719 C 253.074219 141.054688 256.550781 186.871094 261.953125 232.023438 L 261.117188 231.910156 L 261.117188 231.929688 L 261.027344 231.925781 C 255.65625 186.847656 252.179688 141.085938 250.699219 95.738281 C 251.003906 95.699219 251.292969 95.660156 251.582031 95.636719 Z M 251.582031 95.636719 " fill-opacity="1" fill-rule="nonzero"/><path fill="#ffbda6" d="M 264.964844 231.035156 C 264.578125 231.230469 264.230469 231.394531 263.9375 231.542969 C 271.941406 198.320312 279.609375 156.953125 275.476562 118.003906 C 274.636719 110.230469 273.402344 102.203125 270.359375 94.933594 C 270.679688 94.949219 271 94.960938 271.339844 94.996094 C 274.328125 102.246094 275.550781 110.199219 276.355469 117.917969 C 280.496094 156.722656 272.929688 197.863281 264.964844 231.035156 Z M 264.964844 231.035156 " fill-opacity="1" fill-rule="nonzero"/><path fill="#ffbda6" d="M 295.523438 173.375 C 292.039062 190.332031 286.699219 206.917969 279.625 222.707031 C 279.164062 222.988281 278.707031 223.269531 278.265625 223.539062 C 285.585938 207.4375 291.085938 190.519531 294.636719 173.191406 C 298.210938 155.792969 299.007812 141.585938 297.164062 128.53125 C 295.480469 116.625 291.320312 105.710938 285.242188 96.90625 C 285.667969 96.996094 286.089844 97.089844 286.515625 97.199219 C 292.398438 105.976562 296.386719 116.71875 298.046875 128.410156 C 299.90625 141.574219 299.101562 155.867188 295.523438 173.375 Z M 295.523438 173.375 " fill-opacity="1" fill-rule="nonzero"/><path fill="#ffbda6" d="M 314.808594 178.320312 C 313.234375 185.699219 311.328125 192.5625 309.082031 198.964844 C 308.574219 199.492188 308.070312 200.023438 307.5625 200.535156 C 310.097656 193.632812 312.191406 186.1875 313.921875 178.136719 C 317.589844 161.0625 318.34375 146.25 316.265625 132.859375 C 314.734375 123.085938 311.5625 113.972656 307.011719 106.113281 C 307.601562 106.515625 308.171875 106.917969 308.722656 107.355469 C 312.824219 114.90625 315.714844 123.527344 317.148438 132.722656 C 319.238281 146.21875 318.480469 161.140625 314.808594 178.320312 Z M 314.808594 178.320312 " fill-opacity="1" fill-rule="nonzero"/><path fill="#110d20" d="M 280.296875 293.433594 C 280.296875 293.589844 280.257812 293.742188 280.183594 293.898438 C 280.105469 294.054688 279.992188 294.207031 279.84375 294.363281 C 279.691406 294.515625 279.503906 294.664062 279.28125 294.816406 C 279.054688 294.964844 278.792969 295.109375 278.5 295.253906 C 278.203125 295.398438 277.871094 295.539062 277.507812 295.679688 C 277.140625 295.816406 276.746094 295.949219 276.316406 296.078125 C 275.886719 296.207031 275.425781 296.332031 274.933594 296.453125 C 274.445312 296.574219 273.925781 296.691406 273.378906 296.800781 C 272.832031 296.910156 272.257812 297.015625 271.660156 297.113281 C 271.0625 297.214844 270.441406 297.304688 269.796875 297.394531 C 269.15625 297.480469 268.492188 297.558594 267.808594 297.632812 C 267.128906 297.707031 266.429688 297.773438 265.714844 297.832031 C 265 297.894531 264.273438 297.945312 263.53125 297.992188 C 262.792969 298.035156 262.042969 298.074219 261.28125 298.105469 C 260.523438 298.136719 259.757812 298.15625 258.988281 298.171875 C 258.21875 298.1875 257.449219 298.195312 256.675781 298.195312 C 255.902344 298.195312 255.128906 298.1875 254.359375 298.171875 C 253.589844 298.15625 252.824219 298.136719 252.066406 298.105469 C 251.308594 298.074219 250.558594 298.035156 249.816406 297.992188 C 249.078125 297.945312 248.347656 297.894531 247.632812 297.832031 C 246.917969 297.773438 246.222656 297.707031 245.539062 297.632812 C 244.855469 297.558594 244.195312 297.480469 243.550781 297.394531 C 242.90625 297.304688 242.285156 297.214844 241.6875 297.113281 C 241.089844 297.015625 240.519531 296.910156 239.972656 296.800781 C 239.421875 296.691406 238.90625 296.574219 238.414062 296.453125 C 237.921875 296.332031 237.464844 296.207031 237.03125 296.078125 C 236.601562 295.949219 236.207031 295.816406 235.839844 295.679688 C 235.476562 295.539062 235.144531 295.398438 234.851562 295.253906 C 234.554688 295.109375 234.292969 294.964844 234.070312 294.816406 C 233.84375 294.664062 233.65625 294.515625 233.507812 294.363281 C 233.355469 294.207031 233.242188 294.054688 233.164062 293.898438 C 233.089844 293.742188 233.050781 293.589844 233.050781 293.433594 C 233.050781 293.277344 233.089844 293.121094 233.164062 292.964844 C 233.242188 292.808594 233.355469 292.65625 233.507812 292.503906 C 233.65625 292.351562 233.84375 292.199219 234.070312 292.050781 C 234.292969 291.898438 234.554688 291.753906 234.851562 291.609375 C 235.144531 291.464844 235.476562 291.324219 235.839844 291.1875 C 236.207031 291.050781 236.601562 290.914062 237.03125 290.785156 C 237.464844 290.65625 237.921875 290.53125 238.414062 290.410156 C 238.90625 290.289062 239.421875 290.175781 239.972656 290.0625 C 240.519531 289.953125 241.089844 289.847656 241.6875 289.75 C 242.285156 289.652344 242.90625 289.558594 243.550781 289.472656 C 244.195312 289.382812 244.855469 289.304688 245.539062 289.230469 C 246.222656 289.15625 246.917969 289.089844 247.632812 289.03125 C 248.347656 288.972656 249.078125 288.917969 249.816406 288.875 C 250.558594 288.828125 251.308594 288.789062 252.066406 288.761719 C 252.824219 288.730469 253.589844 288.707031 254.359375 288.691406 C 255.128906 288.675781 255.902344 288.667969 256.675781 288.667969 C 257.449219 288.667969 258.21875 288.675781 258.988281 288.691406 C 259.757812 288.707031 260.523438 288.730469 261.28125 288.761719 C 262.042969 288.789062 262.792969 288.828125 263.53125 288.875 C 264.273438 288.917969 265 288.972656 265.714844 289.03125 C 266.429688 289.089844 267.128906 289.15625 267.808594 289.230469 C 268.492188 289.304688 269.15625 289.382812 269.796875 289.472656 C 270.441406 289.558594 271.0625 289.652344 271.660156 289.75 C 272.257812 289.847656 272.832031 289.953125 273.378906 290.0625 C 273.925781 290.175781 274.445312 290.289062 274.933594 290.410156 C 275.425781 290.53125 275.886719 290.65625 276.316406 290.785156 C 276.746094 290.914062 277.140625 291.050781 277.507812 291.1875 C 277.871094 291.324219 278.203125 291.464844 278.5 291.609375 C 278.792969 291.753906 279.054688 291.898438 279.28125 292.050781 C 279.503906 292.199219 279.691406 292.351562 279.84375 292.503906 C 279.992188 292.65625 280.105469 292.808594 280.183594 292.964844 C 280.257812 293.121094 280.296875 293.277344 280.296875 293.433594 Z M 280.296875 293.433594 " fill-opacity="0.2" fill-rule="nonzero"/><path fill="#ffe4c3" d="M 120.148438 80.855469 C 119.835938 80.5 119.355469 79.984375 118.699219 79.308594 C 118.296875 78.890625 117.929688 78.695312 117.582031 78.726562 C 117.359375 78.746094 117.140625 78.851562 116.929688 79.046875 C 116.882812 79.101562 116.359375 79.707031 115.34375 80.878906 C 114.351562 82.070312 113.410156 83.078125 112.523438 83.925781 C 111.636719 84.773438 110.800781 85.179688 109.957031 85.117188 C 109.132812 85.066406 108.089844 84.546875 106.867188 83.574219 C 105.625 82.582031 103.640625 80.679688 100.886719 77.832031 C 98.136719 74.984375 96.332031 72.769531 95.453125 71.152344 C 94.5625 69.554688 94.703125 68.195312 95.863281 67.082031 C 97.003906 65.964844 98.542969 64.796875 100.425781 63.582031 C 100.558594 63.5 100.71875 63.363281 100.894531 63.175781 C 101.089844 63 101.167969 62.695312 101.09375 62.28125 C 101.042969 61.867188 100.847656 61.273438 100.480469 60.484375 C 100.117188 59.714844 99.828125 59.214844 99.632812 59.007812 C 99.421875 58.796875 99.136719 58.71875 98.792969 58.785156 C 97.039062 59.078125 95.019531 60.34375 92.714844 62.554688 C 90.417969 64.785156 89.042969 66.8125 88.59375 68.632812 C 88.125 70.476562 88.5 72.539062 89.71875 74.824219 C 90.933594 77.109375 93.179688 79.949219 96.449219 83.328125 C 100.914062 87.960938 104.605469 90.585938 107.511719 91.21875 C 108.867188 91.515625 110.253906 91.410156 111.660156 90.902344 C 113.269531 90.339844 114.933594 89.230469 116.609375 87.597656 C 117.507812 86.714844 118.773438 85.238281 120.386719 83.140625 C 120.886719 82.46875 120.800781 81.707031 120.148438 80.855469 Z M 120.148438 80.855469 " fill-opacity="1" fill-rule="nonzero"/><path fill="#ffe4c3" d="M 135.160156 57.683594 C 134.636719 56.699219 134.019531 55.671875 133.332031 54.597656 C 130.828125 50.625 128.601562 47.765625 126.664062 46.050781 C 124.714844 44.339844 122.804688 43.496094 120.917969 43.503906 C 119.03125 43.515625 116.796875 44.324219 114.234375 45.949219 C 111.667969 47.558594 109.980469 49.230469 109.171875 50.925781 C 108.34375 52.625 108.289062 54.742188 109 57.246094 C 109.710938 59.753906 111.328125 62.980469 113.828125 66.933594 C 116.042969 70.441406 118.113281 73.070312 120.050781 74.820312 C 121.113281 75.789062 122.117188 76.488281 123.082031 76.90625 C 125.808594 78.097656 129.027344 77.53125 132.730469 75.195312 C 136.4375 72.855469 138.316406 70.191406 138.398438 67.214844 C 138.449219 64.832031 137.382812 61.660156 135.160156 57.683594 Z M 131.929688 68.90625 C 131.550781 69.777344 130.253906 70.90625 128.070312 72.289062 C 127.640625 72.554688 127.164062 72.527344 126.613281 72.191406 C 126.042969 71.875 125.210938 70.972656 124.085938 69.535156 C 124.046875 69.484375 124.007812 69.4375 123.984375 69.386719 C 122.882812 67.964844 121.636719 66.152344 120.234375 63.9375 C 118.789062 61.636719 117.773438 60.015625 117.195312 59.035156 C 116.601562 58.074219 116.09375 57.070312 115.652344 56.046875 C 115.214844 55.019531 114.984375 54.21875 114.933594 53.664062 C 114.90625 53.125 115.027344 52.519531 115.285156 51.886719 C 115.542969 51.25 115.949219 50.710938 116.5 50.242188 C 117.050781 49.753906 117.824219 49.214844 118.835938 48.582031 C 119.246094 48.320312 119.777344 48.394531 120.410156 48.808594 C 121.039062 49.226562 121.929688 50.195312 123.078125 51.71875 C 124.226562 53.242188 125.675781 55.382812 127.441406 58.144531 C 128.558594 59.914062 129.4375 61.355469 130.078125 62.453125 C 130.429688 63.085938 130.722656 63.601562 130.933594 64 C 131.378906 64.871094 131.683594 65.558594 131.847656 66.035156 C 132.011719 66.527344 132.109375 67.039062 132.125 67.582031 C 132.140625 68.136719 132.074219 68.5625 131.929688 68.90625 Z M 131.929688 68.90625 " fill-opacity="1" fill-rule="nonzero"/><path fill="#ffe4c3" d="M 158.652344 58.183594 C 158.265625 57.183594 157.40625 56.949219 156.054688 57.46875 L 148.066406 60.574219 L 144.265625 50.828125 L 143.070312 47.792969 L 137.660156 35.675781 C 137.257812 34.699219 136.058594 34.597656 134.082031 35.363281 C 133.257812 35.683594 132.742188 36.007812 132.542969 36.324219 C 132.328125 36.640625 132.332031 37.09375 132.578125 37.699219 L 139.085938 54.488281 L 143.980469 67.117188 L 144.890625 67.527344 L 158.148438 62.382812 C 158.589844 62.222656 158.902344 61.984375 159.101562 61.6875 C 159.488281 61.128906 159.332031 59.957031 158.652344 58.183594 Z M 158.652344 58.183594 " fill-opacity="1" fill-rule="nonzero"/><path fill="#ffe4c3" d="M 180.265625 41.097656 C 180.054688 39.910156 179.835938 38.8125 179.585938 37.769531 C 178.917969 34.769531 178.128906 32.394531 177.277344 30.671875 C 176.128906 28.363281 174.683594 26.847656 172.925781 26.148438 C 171.167969 25.449219 168.789062 25.382812 165.8125 25.90625 C 162.835938 26.453125 160.644531 27.363281 159.238281 28.621094 C 157.832031 29.898438 157.007812 31.824219 156.714844 34.417969 C 156.464844 36.746094 156.675781 39.890625 157.324219 43.835938 C 157.378906 44.285156 157.472656 44.746094 157.550781 45.210938 C 158.707031 51.554688 160.304688 55.78125 162.382812 57.917969 C 164.460938 60.058594 167.664062 60.734375 171.980469 59.949219 C 176.296875 59.183594 179.042969 57.417969 180.214844 54.691406 C 181.40625 51.96875 181.421875 47.441406 180.265625 41.097656 Z M 174.605469 51.140625 C 174.5625 51.648438 174.46875 52.164062 174.273438 52.6875 C 174.070312 53.195312 173.863281 53.582031 173.605469 53.832031 C 172.910156 54.488281 171.304688 55.066406 168.757812 55.519531 C 168.257812 55.617188 167.820312 55.394531 167.425781 54.886719 C 167.03125 54.378906 166.582031 53.234375 166.09375 51.476562 C 165.585938 49.707031 165.09375 47.496094 164.628906 44.828125 C 164.367188 43.457031 164.15625 42.285156 164 41.320312 C 163.835938 40.410156 163.71875 39.6875 163.636719 39.152344 C 163.464844 38.03125 163.367188 36.921875 163.335938 35.804688 C 163.324219 34.691406 163.390625 33.863281 163.574219 33.339844 C 163.753906 32.816406 164.074219 32.300781 164.554688 31.820312 C 165.035156 31.324219 165.613281 30.957031 166.3125 30.738281 C 166.988281 30.503906 167.914062 30.28125 169.082031 30.074219 C 169.566406 29.996094 170.023438 30.25 170.464844 30.875 C 170.886719 31.503906 171.347656 32.734375 171.839844 34.578125 C 172.15625 35.757812 172.492188 37.195312 172.839844 38.929688 C 173.03125 39.90625 173.25 40.988281 173.460938 42.175781 C 174.042969 45.410156 174.398438 47.648438 174.511719 48.914062 C 174.597656 49.882812 174.632812 50.628906 174.605469 51.140625 Z M 174.605469 51.140625 " fill-opacity="1" fill-rule="nonzero"/><path fill="#ffe4c3" d="M 202.523438 26.15625 C 201.003906 24.578125 198.203125 23.726562 194.121094 23.601562 C 191.914062 23.535156 189.308594 23.699219 186.300781 24.070312 L 185.894531 37.191406 L 185.292969 56.183594 C 185.257812 57.355469 186.5 57.976562 189.023438 58.070312 C 189.882812 58.097656 190.398438 58 190.554688 57.792969 C 190.730469 57.601562 190.824219 57.085938 190.855469 56.265625 L 191.207031 44.875 C 192.679688 44.9375 193.78125 44.945312 194.511719 44.898438 L 199.175781 56.695312 C 199.644531 57.839844 201.304688 58.445312 204.160156 58.539062 C 205.039062 58.566406 205.550781 58.453125 205.667969 58.179688 C 205.730469 58.121094 205.773438 57.996094 205.769531 57.769531 C 205.785156 57.539062 205.636719 57.0625 205.328125 56.324219 L 200.175781 43.574219 C 202.074219 42.515625 203.363281 40.703125 204.039062 38.113281 C 204.382812 36.859375 204.574219 35.445312 204.621094 33.832031 C 204.726562 30.292969 204.027344 27.734375 202.523438 26.15625 Z M 196.90625 38.011719 C 196.054688 38.664062 194.453125 38.945312 192.105469 38.859375 C 191.929688 38.855469 191.769531 38.835938 191.609375 38.796875 C 191.46875 38.773438 191.417969 38.570312 191.417969 38.1875 L 191.457031 37.046875 L 191.683594 29.792969 C 191.695312 29.304688 191.929688 29.019531 192.394531 28.945312 C 192.84375 28.871094 194.117188 28.859375 196.21875 28.917969 C 196.761719 28.941406 197.253906 29.367188 197.695312 30.203125 C 198.121094 31.039062 198.324219 32.171875 198.277344 33.574219 C 198.21875 35.292969 197.960938 36.539062 197.492188 37.332031 C 197.324219 37.609375 197.136719 37.851562 196.90625 38.011719 Z M 196.90625 38.011719 " fill-opacity="1" fill-rule="nonzero"/><path fill="#ffe4c3" d="M 225.972656 27.726562 C 221.867188 26.746094 219.683594 26.570312 219.425781 27.207031 C 219.339844 27.40625 218.980469 28.257812 218.34375 29.765625 C 217.691406 31.273438 216.332031 34.46875 214.265625 39.316406 C 214.121094 39.644531 213.972656 39.972656 213.84375 40.296875 C 211.933594 44.746094 210.304688 48.613281 208.933594 51.898438 C 207.464844 55.417969 206.71875 57.230469 206.695312 57.355469 C 206.667969 57.460938 206.648438 57.601562 206.640625 57.742188 C 206.667969 58.054688 206.960938 58.398438 207.539062 58.78125 C 207.761719 58.953125 208.390625 59.160156 209.390625 59.386719 L 210.585938 59.683594 C 211.105469 59.792969 211.476562 59.863281 211.726562 59.894531 C 211.953125 59.925781 212.160156 59.855469 212.335938 59.683594 C 212.511719 59.511719 212.707031 59.144531 212.953125 58.5625 L 216.382812 49.976562 L 222.394531 51.398438 L 221.800781 60.605469 C 221.707031 61.734375 222.9375 62.601562 225.492188 63.214844 C 226.328125 63.402344 226.820312 63.445312 227.003906 63.324219 C 227.183594 63.203125 227.308594 63.015625 227.371094 62.765625 C 227.421875 62.519531 227.449219 62.253906 227.476562 61.953125 L 228.503906 46.019531 L 228.664062 43.679688 L 228.863281 29.808594 C 228.90625 28.878906 227.933594 28.179688 225.972656 27.726562 Z M 222.6875 45.992188 L 218.4375 44.972656 L 219.585938 42.164062 L 223.351562 33.042969 L 222.824219 43.429688 Z M 222.6875 45.992188 " fill-opacity="1" fill-rule="nonzero"/><path fill="#ffe4c3" d="M 258.066406 41.261719 C 256.96875 39.734375 254.96875 38.285156 252.070312 36.917969 C 250.285156 36.082031 247.265625 34.9375 242.996094 33.480469 L 235.308594 49.832031 L 228.886719 63.472656 C 233.511719 66.171875 236.324219 67.753906 237.328125 68.226562 C 241.46875 70.164062 244.851562 70.316406 247.503906 68.699219 C 249.0625 67.742188 250.625 66.066406 252.226562 63.636719 C 253.367188 61.925781 254.492188 59.851562 255.65625 57.390625 C 257.652344 53.125 258.835938 49.753906 259.191406 47.277344 C 259.550781 44.796875 259.179688 42.785156 258.066406 41.261719 Z M 249.011719 54.800781 C 248.320312 56.261719 247.683594 57.558594 247.101562 58.675781 C 246.269531 60.304688 245.527344 61.59375 244.894531 62.523438 C 244.355469 63.339844 243.804688 63.804688 243.289062 63.921875 C 242.757812 64.054688 242.234375 64.066406 241.722656 63.972656 C 241.207031 63.878906 240.410156 63.582031 239.296875 63.054688 C 238.203125 62.539062 237.472656 62.167969 237.136719 61.953125 C 236.804688 61.722656 236.710938 61.46875 236.84375 61.175781 L 240.53125 53.351562 L 246.277344 41.121094 C 246.484375 40.699219 246.890625 40.578125 247.519531 40.765625 C 248.148438 40.9375 249.621094 41.574219 251.953125 42.660156 C 253.464844 43.382812 252.480469 47.433594 249.011719 54.800781 Z M 249.011719 54.800781 " fill-opacity="1" fill-rule="nonzero"/><path fill="#ffe4c3" d="M 284.359375 59.15625 C 283.714844 57.378906 282.171875 55.574219 279.773438 53.726562 C 277.371094 51.878906 275.238281 50.863281 273.351562 50.664062 C 271.480469 50.480469 269.480469 51.148438 267.363281 52.679688 C 265.261719 54.214844 262.789062 56.84375 259.917969 60.539062 C 257.992188 63.050781 256.496094 65.300781 255.472656 67.3125 C 254.394531 69.363281 253.820312 71.144531 253.726562 72.65625 C 253.535156 75.625 255.183594 78.449219 258.65625 81.128906 C 261.488281 83.304688 264.070312 84.28125 266.460938 84.050781 C 267 84.003906 267.550781 83.902344 268.074219 83.714844 C 270.890625 82.765625 274.273438 79.738281 278.207031 74.640625 C 281.070312 70.90625 282.984375 67.835938 283.941406 65.429688 C 284.878906 63.023438 285.027344 60.929688 284.359375 59.15625 Z M 279.203125 60.503906 C 279.023438 61.234375 278.429688 62.40625 277.402344 64 C 276.355469 65.613281 274.847656 67.703125 272.84375 70.3125 C 270.835938 72.898438 269.402344 74.667969 268.542969 75.601562 C 267.871094 76.308594 267.339844 76.828125 266.953125 77.160156 C 266.542969 77.492188 266.09375 77.742188 265.589844 77.945312 C 265.082031 78.144531 264.636719 78.238281 264.285156 78.234375 C 263.953125 78.210938 263.539062 78.089844 263.046875 77.855469 C 262.191406 77.476562 261.097656 76.769531 259.785156 75.75 C 259.390625 75.453125 259.246094 74.976562 259.363281 74.355469 C 259.421875 74.035156 259.59375 73.585938 259.875 73.015625 C 260.15625 72.46875 260.519531 71.824219 260.992188 71.066406 C 261.972656 69.511719 263.292969 67.664062 264.9375 65.527344 C 266.582031 63.390625 267.777344 61.867188 268.484375 60.984375 C 269.210938 60.117188 269.976562 59.277344 270.78125 58.527344 C 271.605469 57.753906 272.257812 57.257812 272.765625 57.039062 C 273.269531 56.820312 273.871094 56.714844 274.554688 56.742188 C 275.238281 56.769531 275.902344 56.96875 276.527344 57.316406 C 277.152344 57.679688 277.953125 58.222656 278.875 58.941406 C 279.265625 59.242188 279.382812 59.773438 279.203125 60.503906 Z M 279.203125 60.503906 " fill-opacity="1" fill-rule="nonzero"/></svg>