<svg xmlns="http://www.w3.org/2000/svg" xmlns:xlink="http://www.w3.org/1999/xlink" width="500" zoomAndPan="magnify" viewBox="0 0 375 374.999991" height="500" preserveAspectRatio="xMidYMid meet" version="1.0"><defs><clipPath id="b81237403e"><path d="M 0 19.21875 L 375 19.21875 L 375 355.96875 L 0 355.96875 Z M 0 19.21875 " clip-rule="nonzero"/></clipPath></defs><g clip-path="url(#b81237403e)"><path fill="#ffffff" d="M 206.402344 355.96875 L 38.121094 187.59375 L 206.402344 19.21875 L 374.683594 187.59375 Z M 43.402344 187.59375 L 206.320312 350.601562 L 369.316406 187.59375 L 206.402344 24.585938 Z M 187.460938 355.96875 L 19.179688 187.59375 L 187.460938 19.21875 L 355.742188 187.59375 Z M 24.542969 187.59375 L 187.460938 350.601562 L 350.457031 187.59375 L 187.460938 24.585938 Z M 168.597656 355.96875 L 0.316406 187.59375 L 168.597656 19.21875 L 336.878906 187.59375 Z M 5.683594 187.59375 L 168.597656 350.601562 L 331.515625 187.59375 L 168.597656 24.585938 Z M 306.476562 306.675781 L 68.523438 306.675781 L 68.523438 68.511719 L 306.476562 68.511719 Z M 72.265625 302.851562 L 302.734375 302.851562 L 302.734375 72.335938 L 72.265625 72.335938 Z M 297.53125 99.339844 L 273.792969 75.585938 L 297.53125 75.585938 Z M 280.625 78.433594 L 294.6875 92.507812 L 294.6875 78.433594 Z M 76.492188 102.1875 L 76.492188 78.433594 L 100.230469 78.433594 Z M 79.335938 81.28125 L 79.335938 95.355469 L 93.402344 81.28125 Z M 100.230469 296.753906 L 76.492188 296.753906 L 76.492188 273 Z M 79.335938 293.90625 L 93.402344 293.90625 L 79.335938 279.832031 Z M 298.425781 298.625 L 274.6875 298.625 L 298.425781 274.871094 Z M 281.597656 295.777344 L 295.664062 295.777344 L 295.664062 281.703125 Z M 198.757812 245.425781 L 198.757812 234.121094 L 170.710938 234.121094 L 170.710938 140.824219 L 191.929688 140.984375 L 187.539062 129.679688 L 170.710938 129.597656 L 170.710938 103 L 198.757812 103 L 198.757812 91.773438 L 159.414062 91.773438 L 159.414062 129.515625 L 149.496094 129.515625 L 153.640625 140.824219 L 159.414062 140.824219 L 159.414062 245.425781 Z M 195.34375 129.597656 L 199.734375 140.984375 L 214.53125 141.066406 L 214.53125 234.609375 C 214.53125 245.34375 213.148438 253.316406 210.382812 258.605469 C 206.96875 265.03125 200.628906 269.667969 191.28125 272.433594 L 191.28125 283.496094 C 203.066406 281.378906 211.929688 276.09375 217.78125 267.796875 C 222.984375 260.3125 225.585938 250.386719 225.585938 238.105469 L 225.585938 129.761719 Z M 195.34375 129.597656 " fill-opacity="1" fill-rule="nonzero"/></g></svg>