<svg xmlns="http://www.w3.org/2000/svg" xmlns:xlink="http://www.w3.org/1999/xlink" width="48" zoomAndPan="magnify" viewBox="0 0 36 36.000001" height="48" preserveAspectRatio="xMidYMid meet" version="1.0"><defs><clipPath id="f6d561dbbc"><path d="M 0.488281 0 L 35.511719 0 L 35.511719 35.027344 L 0.488281 35.027344 Z M 0.488281 0 " clip-rule="nonzero"/></clipPath><clipPath id="4c580940d4"><path d="M 5.585938 7.753906 L 30.398438 7.753906 L 30.398438 27.457031 L 5.585938 27.457031 Z M 5.585938 7.753906 " clip-rule="nonzero"/></clipPath></defs><g clip-path="url(#f6d561dbbc)"><path fill="#060644" d="M 1.945312 0 L 34.054688 0 C 34.859375 0 35.511719 0.652344 35.511719 1.460938 L 35.511719 33.566406 C 35.511719 34.375 34.859375 35.027344 34.054688 35.027344 L 1.945312 35.027344 C 1.140625 35.027344 0.488281 34.375 0.488281 33.566406 L 0.488281 1.460938 C 0.488281 0.652344 1.140625 0 1.945312 0 " fill-opacity="1" fill-rule="nonzero"/></g><g clip-path="url(#4c580940d4)"><path fill="#ffffff" d="M 26.90625 9.546875 L 9.078125 9.546875 L 17.453125 16.054688 C 17.769531 16.304688 18.214844 16.304688 18.53125 16.054688 Z M 7.359375 10.46875 L 7.359375 25.664062 L 28.625 25.664062 L 28.625 10.46875 L 19.613281 17.476562 C 18.65625 18.21875 17.328125 18.21875 16.371094 17.476562 Z M 5.585938 9.546875 C 5.585938 8.558594 6.378906 7.757812 7.359375 7.757812 L 28.625 7.757812 C 29.605469 7.757812 30.398438 8.558594 30.398438 9.546875 L 30.398438 25.664062 C 30.398438 26.652344 29.605469 27.453125 28.625 27.453125 L 7.359375 27.453125 C 6.378906 27.453125 5.585938 26.652344 5.585938 25.664062 Z M 5.585938 9.546875 " fill-opacity="1" fill-rule="evenodd"/></g></svg>