<svg xmlns="http://www.w3.org/2000/svg" xmlns:xlink="http://www.w3.org/1999/xlink" width="320" zoomAndPan="magnify" viewBox="0 0 240 239.999995" height="320" preserveAspectRatio="xMidYMid meet" version="1.0"><defs><clipPath id="c2f78b9a71"><path d="M 0 12.300781 L 240 12.300781 L 240 227.550781 L 0 227.550781 Z M 0 12.300781 " clip-rule="nonzero"/></clipPath></defs><g clip-path="url(#c2f78b9a71)"><path fill="#060644" d="M 132.097656 227.550781 L 24.402344 119.925781 L 132.097656 12.300781 L 239.792969 119.925781 Z M 27.78125 119.925781 L 132.042969 224.117188 L 236.359375 119.925781 L 132.097656 15.730469 Z M 119.972656 227.550781 L 12.277344 119.925781 L 119.972656 12.300781 L 227.667969 119.925781 Z M 15.710938 119.925781 L 119.972656 224.117188 L 224.289062 119.925781 L 119.972656 15.730469 Z M 107.902344 227.550781 L 0.207031 119.925781 L 107.902344 12.300781 L 215.597656 119.925781 Z M 3.640625 119.925781 L 107.902344 224.117188 L 212.164062 119.925781 L 107.902344 15.730469 Z M 196.140625 196.042969 L 43.859375 196.042969 L 43.859375 43.808594 L 196.140625 43.808594 Z M 46.253906 193.597656 L 193.746094 193.597656 L 193.746094 46.25 L 46.253906 46.25 Z M 190.417969 63.511719 L 175.226562 48.332031 L 190.417969 48.332031 Z M 179.597656 50.152344 L 188.597656 59.144531 L 188.597656 50.152344 Z M 48.957031 65.332031 L 48.957031 50.152344 L 64.148438 50.152344 Z M 50.777344 51.96875 L 50.777344 60.964844 L 59.777344 51.96875 Z M 64.148438 189.699219 L 48.957031 189.699219 L 48.957031 174.515625 Z M 50.777344 187.878906 L 59.777344 187.878906 L 50.777344 178.886719 Z M 190.992188 190.894531 L 175.796875 190.894531 L 190.992188 175.714844 Z M 180.222656 189.074219 L 189.222656 189.074219 L 189.222656 180.082031 Z M 127.207031 156.890625 L 127.207031 149.664062 L 109.257812 149.664062 L 109.257812 90.027344 L 122.835938 90.132812 L 120.027344 82.90625 L 109.257812 82.855469 L 109.257812 65.851562 L 127.207031 65.851562 L 127.207031 58.675781 L 102.023438 58.675781 L 102.023438 82.800781 L 95.675781 82.800781 L 98.332031 90.027344 L 102.023438 90.027344 L 102.023438 156.890625 Z M 125.019531 82.855469 L 127.828125 90.132812 L 137.300781 90.183594 L 137.300781 149.976562 C 137.300781 156.839844 136.414062 161.933594 134.644531 165.316406 C 132.460938 169.421875 128.402344 172.386719 122.417969 174.152344 L 122.417969 181.222656 C 129.964844 179.871094 135.632812 176.492188 139.378906 171.191406 C 142.710938 166.40625 144.375 160.0625 144.375 152.210938 L 144.375 82.957031 Z M 125.019531 82.855469 " fill-opacity="1" fill-rule="nonzero"/></g></svg>