<svg xmlns="http://www.w3.org/2000/svg" xmlns:xlink="http://www.w3.org/1999/xlink" width="48" zoomAndPan="magnify" viewBox="0 0 36 36.000001" height="48" preserveAspectRatio="xMidYMid meet" version="1.0"><defs><clipPath id="76f41603cc"><path d="M 0.488281 0 L 35.511719 0 L 35.511719 35 L 0.488281 35 Z M 0.488281 0 " clip-rule="nonzero"/></clipPath></defs><g clip-path="url(#76f41603cc)"><path fill="#2196f3" d="M 0.613281 3.957031 C 0.613281 1.84375 2.328125 0.128906 4.445312 0.128906 L 31.261719 0.128906 C 33.378906 0.128906 35.09375 1.84375 35.09375 3.957031 L 35.09375 30.777344 C 35.09375 32.890625 33.378906 34.609375 31.261719 34.609375 L 4.445312 34.609375 C 2.328125 34.609375 0.613281 32.890625 0.613281 30.777344 Z M 0.613281 3.957031 " fill-opacity="1" fill-rule="nonzero"/></g><path fill="#ffffff" d="M 20.726562 10.664062 L 27.433594 10.664062 L 27.433594 12.578125 L 20.726562 12.578125 Z M 20.726562 10.664062 " fill-opacity="1" fill-rule="nonzero"/><path fill="#ffffff" d="M 15.472656 16.820312 C 16.03125 16.546875 17.292969 15.925781 17.292969 14.082031 C 17.292969 10.617188 13.507812 10.664062 12.808594 10.664062 L 6.359375 10.664062 L 6.359375 24.074219 L 13.089844 24.074219 C 13.648438 24.070312 17.855469 23.914062 17.855469 20.238281 C 17.855469 17.871094 16.3125 17.09375 15.472656 16.820312 Z M 9.234375 12.988281 L 12.039062 12.988281 C 12.316406 12.988281 14.140625 13.089844 14.140625 14.496094 C 14.140625 15.898438 12.738281 16.136719 12.320312 16.136719 L 9.234375 16.136719 Z M 12.429688 21.746094 L 9.203125 21.746094 L 9.203125 18.050781 L 12.429688 18.050781 C 13.128906 18.050781 14.671875 18.28125 14.671875 19.96875 C 14.671875 21.65625 12.707031 21.746094 12.429688 21.746094 Z M 12.429688 21.746094 " fill-opacity="1" fill-rule="nonzero"/><path fill="#ffffff" d="M 25.9375 21.578125 C 25.492188 21.855469 25.046875 21.996094 24.453125 21.996094 C 22.222656 21.996094 21.78125 20.117188 21.78125 19.285156 L 29.347656 19.285156 C 29.347656 18.453125 29.347656 17.835938 29.199219 17.140625 C 29.050781 16.449219 28.035156 13.535156 24.304688 13.535156 C 19.089844 13.535156 18.8125 18.113281 18.8125 18.804688 C 18.8125 19.496094 18.960938 20.328125 19.257812 20.882812 C 19.554688 21.578125 19.851562 22.132812 20.296875 22.546875 C 20.742188 22.960938 21.335938 23.375 21.929688 23.65625 C 22.667969 23.933594 23.410156 24.070312 24.152344 24.070312 C 25.339844 24.070312 26.378906 23.796875 27.269531 23.242188 C 28.160156 22.6875 28.753906 21.855469 29.199219 20.746094 L 26.675781 20.746094 C 26.527344 21.023438 26.378906 21.296875 25.9375 21.578125 Z M 24.304688 15.476562 C 25.757812 15.476562 26.378906 17.003906 26.527344 17.695312 L 21.78125 17.695312 C 21.78125 17.558594 22.136719 15.476562 24.304688 15.476562 Z M 24.304688 15.476562 " fill-opacity="1" fill-rule="nonzero"/></svg>