<svg xmlns="http://www.w3.org/2000/svg" xmlns:xlink="http://www.w3.org/1999/xlink" width="48" zoomAndPan="magnify" viewBox="0 0 36 36.000001" height="48" preserveAspectRatio="xMidYMid meet" version="1.0"><defs><clipPath id="88aeaac893"><path d="M 0.488281 0 L 35.511719 0 L 35.511719 35.027344 L 0.488281 35.027344 Z M 0.488281 0 " clip-rule="nonzero"/></clipPath></defs><g clip-path="url(#88aeaac893)"><path fill="#0177b5" d="M 32.917969 0 L 3.070312 0 C 1.648438 0 0.488281 1.132812 0.488281 2.523438 L 0.488281 32.5 C 0.488281 33.894531 1.648438 35.027344 3.070312 35.027344 L 32.921875 35.027344 C 34.351562 35.027344 35.511719 33.894531 35.511719 32.5 L 35.511719 2.523438 C 35.511719 1.132812 34.351562 0 32.917969 0 Z M 32.917969 0 " fill-opacity="1" fill-rule="nonzero"/></g><path fill="#ffffff" d="M 5.679688 13.132812 L 10.886719 13.132812 L 10.886719 29.847656 L 5.679688 29.847656 Z M 8.277344 4.8125 C 9.9375 4.8125 11.289062 6.164062 11.289062 7.824219 C 11.289062 9.484375 9.9375 10.835938 8.28125 10.835938 C 7.878906 10.835938 7.496094 10.757812 7.128906 10.605469 C 6.757812 10.453125 6.433594 10.234375 6.152344 9.953125 C 5.867188 9.667969 5.648438 9.34375 5.496094 8.976562 C 5.34375 8.605469 5.265625 8.222656 5.265625 7.824219 C 5.265625 7.421875 5.34375 7.039062 5.496094 6.671875 C 5.648438 6.300781 5.867188 5.976562 6.148438 5.695312 C 6.429688 5.410156 6.757812 5.195312 7.125 5.042969 C 7.496094 4.886719 7.878906 4.8125 8.277344 4.8125 M 14.136719 13.132812 L 19.117188 13.132812 L 19.117188 15.417969 L 19.1875 15.417969 C 19.878906 14.101562 21.574219 12.71875 24.113281 12.71875 C 29.371094 12.71875 30.34375 16.179688 30.34375 20.679688 L 30.34375 29.847656 L 25.152344 29.847656 L 25.152344 21.714844 C 25.152344 19.78125 25.117188 17.285156 22.453125 17.285156 C 19.75 17.285156 19.332031 19.394531 19.332031 21.574219 L 19.332031 29.84375 L 14.144531 29.84375 L 14.144531 13.128906 Z M 14.136719 13.132812 " fill-opacity="1" fill-rule="nonzero"/></svg>